<svg fill="currentColor" viewBox="0 0 512 512" width="120px" height="120px">
    <path
        d="M466.93,173.88V111.7a33,33,0,0,0-33-33H323.58a33,33,0,0,0-33,33v20.09H221.42V111.7a33,33,0,0,0-33-33H78.06a33,33,0,0,0-33,33v62.18a33,33,0,0,0,33,33H188.42a33,33,0,0,0,33-33V153.79H245V358.21H221.42V338.12a33,33,0,0,0-33-33H78.06a33,33,0,0,0-33,33V400.3a33,33,0,0,0,33,33H188.42a33,33,0,0,0,33-33V380.21H256a11,11,0,0,0,11-11V153.79h23.58v20.09a33,33,0,0,0,33,33H433.94A33,33,0,0,0,466.93,173.88Zm-267.51,0a11,11,0,0,1-11,11H102V100.71h86.44a11,11,0,0,1,11,11Zm0,226.42a11,11,0,0,1-11,11H102V327.13h86.44a11,11,0,0,1,11,11ZM444.93,111.7v62.18a11,11,0,0,1-11,11H347.49V100.71h86.45A11,11,0,0,1,444.93,111.7Z"></path>
</svg>