<svg width="51" height="50" viewBox="0 0 51 50" fill="none" xmlns="http://www.w3.org/2000/svg">
<g clip-path="url(#clip0_1039_36478)">
<path d="M26.1292 27.4602V22.4872C26.1292 21.4747 26.6021 20.7497 27.6125 20.7497H33.8417C33.8771 20.7497 33.9146 20.7122 33.9146 20.6747V19.6852C33.9146 19.6768 33.9125 19.6685 33.9083 19.6602H26.2833C24.6333 19.8685 23.825 21.0206 23.825 22.4872V27.4581C23.825 28.4622 23.3396 29.1893 22.3458 29.1893H15.775C15.7375 29.1893 15.7 29.2143 15.7 29.2643V30.2539C15.7028 30.297 15.7187 30.3247 15.7479 30.3372H23.2146C25.1583 30.2852 26.1167 29.0456 26.1167 27.4518L26.1292 27.4602ZM0.55 30.3435H2.7375C2.75389 30.3369 2.76777 30.3253 2.77713 30.3103C2.78649 30.2953 2.79085 30.2778 2.78958 30.2602V27.0935C2.78958 26.0789 3.3625 25.3789 4.19792 25.3789H13.2042C15.2333 25.3789 16.2146 24.1289 16.2146 22.4956C16.2146 21.0268 15.4104 19.8768 13.7562 19.6685H0.5125C0.5125 19.6747 0.5 19.6789 0.5 19.6893V20.6789C0.5 20.7289 0.525694 20.7539 0.577083 20.7539H12.4458C13.4542 20.7539 13.9292 21.4831 13.9292 22.4893C13.9292 23.4977 13.4563 24.231 12.4458 24.231H3.05417C1.59583 24.231 0.5 25.4643 0.5 27.0914V30.256C0.5 30.2977 0.520833 30.331 0.558333 30.3393L0.55 30.3435ZM33.8792 29.1977H45.8333C45.8687 29.1977 45.8958 29.2227 45.8958 29.2477V30.2539C45.8958 30.3039 45.9313 30.3289 45.9688 30.3289H48.125C48.1625 30.3289 48.2 30.3081 48.2 30.2539V29.2643C48.2 29.2268 48.2417 29.1893 48.2833 29.1893H50.425C50.475 29.1893 50.5 29.1518 50.5 29.1143V28.106C50.5 28.0685 50.4792 28.031 50.4271 28.031H48.2812C48.2396 28.031 48.2042 27.9956 48.2042 27.9581V20.7518C48.2042 20.1622 47.9875 19.7872 47.6208 19.6622H46.9958C46.7737 19.7244 46.5613 19.8169 46.3646 19.9372L33.4896 27.8852C32.9896 28.1977 32.8167 28.5477 32.9417 28.8122C33.0417 29.0289 33.3271 29.1914 33.8875 29.1914L33.8792 29.1977ZM35.7437 27.8706L45.7229 21.7018C45.7854 21.6518 45.9104 21.6643 45.9104 21.8018V27.9706C45.9104 28.0081 45.8771 28.0456 45.8396 28.0456H35.8042C35.7208 28.0456 35.6792 28.0206 35.6688 27.9956C35.6549 27.9484 35.6799 27.9067 35.7437 27.8706Z" fill="#B9BEEC"/>
</g>
<defs>
<clipPath id="clip0_1039_36478">
<rect width="50" height="50" fill="white" transform="translate(0.5)"/>
</clipPath>
</defs>
</svg>
