<svg viewBox="0 0 51 50" fill="none" xmlns="http://www.w3.org/2000/svg">
    <g>
        <path
            d="M22.2709 30.3555C22.6494 30.3555 23.0243 30.2809 23.374 30.1359C23.7237 29.991 24.0414 29.7786 24.309 29.5108C24.5765 29.2431 24.7887 28.9252 24.9334 28.5754C25.0781 28.2256 25.1524 27.8507 25.1521 27.4721V22.518C25.1521 22.2899 25.1971 22.0641 25.2844 21.8534C25.3718 21.6427 25.4998 21.4513 25.6612 21.2901C25.8225 21.1289 26.0141 21.0011 26.2249 20.9141C26.4357 20.827 26.6616 20.7823 26.8896 20.7826H32.4813C32.4914 20.7823 32.5014 20.78 32.5106 20.7759C32.5199 20.7718 32.5282 20.7659 32.5352 20.7585C32.5422 20.7512 32.5476 20.7425 32.5512 20.733C32.5548 20.7236 32.5566 20.7135 32.5563 20.7034V19.7117C32.5563 19.6918 32.5484 19.6728 32.5343 19.6587C32.5203 19.6446 32.5012 19.6367 32.4813 19.6367H25.7438C25.3652 19.6364 24.9904 19.7108 24.6405 19.8554C24.2907 20.0001 23.9729 20.2123 23.7051 20.4799C23.4373 20.7475 23.2249 21.0652 23.08 21.4149C22.9351 21.7646 22.8605 22.1394 22.8605 22.518V27.4763C22.8605 27.9368 22.6777 28.3784 22.3523 28.7042C22.0269 29.0299 21.5855 29.2133 21.125 29.2138H15.6105C15.6004 29.2138 15.5905 29.2158 15.5813 29.2197C15.572 29.2236 15.5637 29.2293 15.5567 29.2365C15.5497 29.2437 15.5442 29.2522 15.5406 29.2615C15.5369 29.2709 15.5352 29.2809 15.5355 29.2909V30.2826C15.5355 30.3024 15.5434 30.3215 15.5574 30.3356C15.5715 30.3497 15.5906 30.3576 15.6105 30.3576L22.2709 30.3555ZM34.8646 23.6617V19.7117C34.8646 19.6918 34.8725 19.6728 34.8866 19.6587C34.9007 19.6446 34.9197 19.6367 34.9396 19.6367H50.1646C50.1847 19.6367 50.204 19.6445 50.2184 19.6586C50.2328 19.6726 50.2412 19.6916 50.2417 19.7117V20.7034C50.2407 20.7237 50.2324 20.743 50.2182 20.7576C50.204 20.7722 50.1849 20.781 50.1646 20.7826H37.2271C37.2173 20.7826 37.2075 20.7845 37.1984 20.7883C37.1893 20.792 37.1811 20.7976 37.1741 20.8045C37.1671 20.8115 37.1616 20.8198 37.1578 20.8289C37.1541 20.838 37.1521 20.8477 37.1521 20.8576V23.4326C37.1516 23.5413 37.1726 23.6491 37.214 23.7497C37.2553 23.8503 37.3162 23.9417 37.3931 24.0186C37.4701 24.0955 37.5614 24.1564 37.662 24.1978C37.7626 24.2392 37.8704 24.2602 37.9792 24.2596H47.6084C48.3857 24.3051 49.1162 24.6459 49.6504 25.2123C50.1847 25.7787 50.4822 26.5279 50.4822 27.3065C50.4822 28.0851 50.1847 28.8343 49.6504 29.4007C49.1162 29.9671 48.3857 30.3079 47.6084 30.3534H34.9417C34.9317 30.3537 34.9217 30.3519 34.9124 30.3483C34.903 30.3446 34.8945 30.3392 34.8873 30.3322C34.8801 30.3252 34.8744 30.3168 34.8705 30.3076C34.8666 30.2983 34.8646 30.2884 34.8646 30.2784V29.2909C34.8643 29.2809 34.8661 29.2709 34.8697 29.2615C34.8734 29.2522 34.8788 29.2437 34.8858 29.2365C34.8928 29.2293 34.9012 29.2236 34.9104 29.2197C34.9197 29.2158 34.9296 29.2138 34.9396 29.2138H46.4605C46.7183 29.2248 46.9757 29.1834 47.2171 29.0921C47.4585 29.0008 47.6789 28.8615 47.8649 28.6826C48.0509 28.5037 48.1987 28.2889 48.2993 28.0513C48.3999 27.8136 48.4513 27.558 48.4503 27.2999C48.4493 27.0418 48.396 26.7866 48.2936 26.5497C48.1911 26.3129 48.0417 26.0992 47.8543 25.9217C47.667 25.7443 47.4455 25.6066 47.2034 25.5172C46.9613 25.4277 46.7036 25.3883 46.4459 25.4013H36.6C36.3718 25.4013 36.1458 25.3563 35.935 25.2688C35.7241 25.1813 35.5326 25.0531 35.3714 24.8915C35.2102 24.7299 35.0825 24.5381 34.9955 24.3271C34.9086 24.1161 34.8641 23.89 34.8646 23.6617ZM12.2688 24.2596C12.7302 24.2596 13.1726 24.0764 13.4989 23.7501C13.8251 23.4239 14.0084 22.9814 14.0084 22.5201C14.0084 22.0587 13.8251 21.6162 13.4989 21.29C13.1726 20.9637 12.7302 20.7805 12.2688 20.7805H0.577125C0.557037 20.7805 0.53774 20.7726 0.523343 20.7586C0.508945 20.7446 0.500585 20.7255 0.500042 20.7055V19.7138C0.500038 19.7038 0.502045 19.6938 0.505944 19.6846C0.509842 19.6754 0.515554 19.667 0.52274 19.66C0.529927 19.653 0.538443 19.6475 0.547784 19.6439C0.557125 19.6403 0.567102 19.6385 0.577125 19.6388H13.3938C14.1448 19.659 14.8583 19.9715 15.3823 20.5099C15.9064 21.0482 16.1996 21.7698 16.1996 22.5211C16.1996 23.2724 15.9064 23.994 15.3823 24.5323C14.8583 25.0707 14.1448 25.3832 13.3938 25.4034H4.52713C4.29905 25.4034 4.07321 25.4483 3.86253 25.5357C3.65184 25.623 3.46044 25.751 3.29926 25.9124C3.13809 26.0738 3.0103 26.2653 2.92321 26.4761C2.83612 26.6869 2.79144 26.9128 2.79171 27.1409V30.293C2.79171 30.303 2.78971 30.3129 2.78581 30.3222C2.78191 30.3314 2.7762 30.3398 2.76901 30.3468C2.76182 30.3537 2.75331 30.3592 2.74397 30.3629C2.73463 30.3665 2.72465 30.3682 2.71463 30.368H0.577125C0.56636 30.3683 0.555643 30.3664 0.545702 30.3622C0.535761 30.3581 0.526829 30.3518 0.519515 30.3439C0.512201 30.336 0.506676 30.3266 0.503316 30.3164C0.499956 30.3062 0.498839 30.2953 0.500042 30.2846V27.1326C0.502799 26.3698 0.807861 25.6393 1.34835 25.1012C1.88884 24.563 2.62066 24.2612 3.38338 24.2617L12.2688 24.2596Z"
            fill="#B9BEEC"/>
    </g>
</svg>
