<svg fill="currentColor" viewBox="0 0 512 512" width="120px" height="120px">
    <path
        d="M438.78,160.75H386.49a28.18,28.18,0,0,0-28.15,28.15V245h-11.9V141.35a11,11,0,0,0-11-11H310.3V74.25a28.19,28.19,0,0,0-28.16-28.16H229.86A28.19,28.19,0,0,0,201.7,74.25v56.1H176.56a11,11,0,0,0-11,11V245h-11.9V133.24a28.18,28.18,0,0,0-28.15-28.15H73.22a28.18,28.18,0,0,0-28.15,28.15V378.76a28.18,28.18,0,0,0,28.15,28.15h52.29a28.18,28.18,0,0,0,28.15-28.15V267h11.9V370.65a11,11,0,0,0,11,11H201.7v56.1a28.19,28.19,0,0,0,28.16,28.16h52.28a28.19,28.19,0,0,0,28.16-28.16v-56.1h25.14a11,11,0,0,0,11-11V267h11.9v56.1a28.18,28.18,0,0,0,28.15,28.15h52.29a28.18,28.18,0,0,0,28.15-28.15V188.9A28.18,28.18,0,0,0,438.78,160.75Zm-307.12,218a6.16,6.16,0,0,1-6.15,6.15H73.22a6.16,6.16,0,0,1-6.15-6.15V133.24a6.16,6.16,0,0,1,6.15-6.15h52.29a6.16,6.16,0,0,1,6.15,6.15Zm92-304.51a6.17,6.17,0,0,1,6.16-6.16h52.28a6.17,6.17,0,0,1,6.16,6.16v134.2a6.16,6.16,0,0,1-6.16,6.15H229.86a6.16,6.16,0,0,1-6.16-6.15Zm64.6,363.5a6.17,6.17,0,0,1-6.16,6.16H229.86a6.17,6.17,0,0,1-6.16-6.16V303.55a6.16,6.16,0,0,1,6.16-6.15h52.28a6.16,6.16,0,0,1,6.16,6.15Zm36.14-78.1H310.3v-56.1a28.19,28.19,0,0,0-28.16-28.15H229.86a28.19,28.19,0,0,0-28.16,28.15v56.1H187.56V152.35H201.7v56.1a28.19,28.19,0,0,0,28.16,28.15h52.28a28.19,28.19,0,0,0,28.16-28.15v-56.1h14.14v207.3ZM444.93,323.1a6.16,6.16,0,0,1-6.15,6.15H386.49a6.16,6.16,0,0,1-6.15-6.15V188.9a6.16,6.16,0,0,1,6.15-6.15h52.29a6.16,6.16,0,0,1,6.15,6.15Z"></path>
</svg>