<svg viewBox="0 0 27 26" fill="none" xmlns="http://www.w3.org/2000/svg">
    <path
        d="M7.46584 4.0313C7.54167 3.9663 7.6175 3.9013 7.67167 3.85797C9.36167 2.7638 11.3333 2.16797 13.5 2.16797C15.5367 2.16797 17.4433 2.70964 19.0683 3.7063C19.1875 3.79297 19.5017 3.9988 19.675 4.20464C18.1042 2.4713 13.5 6.1763 13.5 6.1763C11.875 4.95214 10.4342 4.11797 9.34 3.79297C8.41917 3.56547 7.79084 3.79297 7.49834 4.00964M21.4517 5.64547C21.3975 5.5913 21.3433 5.53714 21.3 5.48297C20.91 5.04964 20.4117 4.9413 20 4.9738C19.5775 5.1038 17.725 5.76464 15.45 7.92047C15.45 7.92047 18.0175 10.4121 19.5883 12.958C21.1592 15.5038 22.0908 17.508 21.5167 20.2921C23.25 18.3638 24.3333 15.8071 24.3333 13.0013C24.3333 10.163 23.25 7.58463 21.4517 5.64547ZM17.5408 14.0413C16.8367 13.2613 15.8075 12.1455 14.4317 10.7805C14.1392 10.488 13.825 10.1846 13.5 9.85964C13.5 9.85964 12.9908 10.358 12.3408 11.0188C11.5067 11.853 10.4342 12.9471 9.8275 13.5863C8.76583 14.7238 5.71083 18.2988 5.5375 20.303C5.5375 20.303 4.83333 18.7213 6.35 15.0488C7.325 12.6546 10.25 9.05797 11.4958 7.88797C11.4958 7.88797 10.38 6.65297 8.97167 5.79714L8.9175 5.76464C8.235 5.3638 7.49834 5.04964 6.78334 5.0063C6.0575 5.06047 5.6025 5.5913 5.6025 5.5913C3.7131 7.59549 2.66261 10.2469 2.66667 13.0013C2.66667 15.8745 3.80803 18.63 5.83968 20.6616C6.84565 21.6676 8.0399 22.4656 9.35426 23.01C10.6686 23.5544 12.0773 23.8346 13.5 23.8346C16.6742 23.8346 19.5342 22.4696 21.5167 20.2921C21.5167 20.2921 21.2892 18.8513 19.8267 16.793C19.4908 16.3271 18.2342 14.8321 17.5408 14.0413Z"
        fill="#B9BEEC"/>
</svg>
