<svg fill="currentColor" viewBox="0 0 512 512" width="120px" height="120px">
    <path
        d="M466.93,285.78V223.6a33,33,0,0,0-33-33H323.58a33,33,0,0,0-33,33v20.09h-30.1V142.79a11,11,0,0,0-11-11H221.42V111.7a33,33,0,0,0-33-33H78.06a33,33,0,0,0-33,33v62.18a33,33,0,0,0,33,33H188.42a33,33,0,0,0,33-33V153.79h17.06V358.21H221.42V338.12a33,33,0,0,0-33-33H78.06a33,33,0,0,0-33,33V400.3a33,33,0,0,0,33,33H188.42a33,33,0,0,0,33-33V380.21h28.06a11,11,0,0,0,11-11V265.69h30.1v20.09a33,33,0,0,0,33,33H433.94A33,33,0,0,0,466.93,285.78ZM199.42,173.88a11,11,0,0,1-11,11H102V100.71h86.44a11,11,0,0,1,11,11Zm0,226.42a11,11,0,0,1-11,11H102V327.13h86.44a11,11,0,0,1,11,11ZM444.93,223.6v62.18a11,11,0,0,1-11,11H344V212.61h90A11,11,0,0,1,444.93,223.6Z"></path>
</svg>