<svg width="40" height="40" viewBox="0 0 40 40" fill="none" xmlns="http://www.w3.org/2000/svg">
<path d="M21.7425 33.744C19.1344 33.744 16.7993 33.1437 14.7371 31.943C12.6749 30.7424 11.0373 29.0995 9.8242 27.0142C8.61114 24.9289 8.00462 22.5908 8.00462 20C8.00462 17.4091 8.61114 15.0711 9.8242 12.9858C11.0373 10.9005 12.6749 9.25748 14.7371 8.05686C16.7993 6.85623 19.1344 6.25591 21.7425 6.25591C23.926 6.25591 25.9275 6.69825 27.7471 7.58292C29.6273 8.4676 31.174 9.66822 32.387 11.1848L30.2035 12.891C28.1413 10.3633 25.321 9.09951 21.7425 9.09951C18.5885 9.09951 15.9501 10.1422 13.8273 12.2275C11.7651 14.2496 10.734 16.8404 10.734 20C10.734 23.0963 11.7651 25.6871 13.8273 27.7724C15.9501 29.8577 18.5885 30.9004 21.7425 30.9004C25.321 30.9004 28.1413 29.6366 30.2035 27.1089L32.387 28.8151C31.174 30.3317 29.6273 31.5323 27.7471 32.417C25.9275 33.3017 23.926 33.744 21.7425 33.744ZM21.7425 39.9999C18.0426 39.9999 14.7067 39.1152 11.7348 37.3459C8.76278 35.5765 6.39732 33.1753 4.63839 30.1421C2.87946 27.1089 2 23.7282 2 20C2 16.2085 2.87946 12.8278 4.63839 9.8578C6.39732 6.82463 8.76278 4.42338 11.7348 2.65403C14.7067 0.884677 18.0426 0 21.7425 0C24.8964 0 27.8077 0.663508 30.4764 1.99052C33.1452 3.31753 35.359 5.08688 37.1179 7.29856L35.0254 9.00472C33.5091 7.10899 31.5985 5.624 29.2937 4.54976C26.9889 3.41232 24.4718 2.8436 21.7425 2.8436C18.5279 2.8436 15.6165 3.60189 13.0085 5.11847C10.4611 6.63506 8.42919 8.68877 6.91287 11.2796C5.4572 13.8072 4.72937 16.714 4.72937 20C4.72937 23.2227 5.4572 26.1295 6.91287 28.7203C8.42919 31.3111 10.4611 33.3648 13.0085 34.8814C15.6165 36.398 18.5279 37.1563 21.7425 37.1563C24.4718 37.1563 26.9889 36.6192 29.2937 35.5449C31.5985 34.4075 33.5091 32.8909 35.0254 30.9952L37.1179 32.7013C35.359 34.913 33.1452 36.6824 30.4764 38.0094C27.8077 39.3364 24.8964 39.9999 21.7425 39.9999Z" fill="white"/>
</svg>
