<svg width="792" height="109" viewBox="0 0 792 109" fill="none" xmlns="http://www.w3.org/2000/svg">
<path d="M229.956 108.998V0.000229408H269.084C277.225 0.172416 284.204 3.09964 290.019 8.78188C295.834 14.2919 298.742 21.9544 298.742 31.7692C298.742 41.7561 295.834 49.5908 290.019 55.273C284.204 60.7831 277.225 63.5381 269.084 63.5381H237.432V108.998H229.956ZM213.507 108.998V0.000229408H220.984V108.998H213.507ZM268.586 7.74876H237.432V17.047H269.084C273.072 17.2192 276.228 18.6828 278.554 21.4378C281.047 24.0206 282.293 27.4644 282.293 31.7692C282.293 36.0739 281.047 39.6038 278.554 42.3588C276.062 45.1138 272.905 46.4914 269.084 46.4914H237.432V55.7896H268.586C274.899 55.7896 280.216 53.8094 284.536 49.8491C289.022 45.7165 291.265 39.6899 291.265 31.7692C291.265 23.8484 289.022 17.9079 284.536 13.9476C280.216 9.81502 274.899 7.74876 268.586 7.74876ZM268.586 24.7955H237.432V38.7428H268.586C270.413 38.7428 271.908 38.2263 273.072 37.1931C274.235 35.9878 274.816 34.1798 274.816 31.7692C274.816 29.3585 274.235 27.6366 273.072 26.6035C271.908 25.3982 270.413 24.7955 268.586 24.7955Z" fill="#EFEFEF"/>
<path d="M113.719 67.6729V7.25861e-05H121.195V67.4146C121.195 78.4348 124.352 86.8721 130.666 92.7265C137.146 98.4088 144.789 101.25 153.595 101.25C162.4 101.25 169.96 98.4088 176.274 92.7265C182.754 86.8721 185.994 78.4348 185.994 67.4146V7.25861e-05H193.471V67.6729C193.304 76.4546 191.394 83.9449 187.738 90.1437C184.249 96.1703 179.514 100.819 173.533 104.091C167.551 107.363 160.905 108.998 153.595 108.998C146.284 108.998 139.555 107.363 133.407 104.091C127.426 100.819 122.608 96.0842 118.952 89.8854C115.463 83.6866 113.719 76.2824 113.719 67.6729ZM130.167 67.6729V7.25861e-05H137.644V67.4146C137.644 73.2691 139.223 77.5738 142.379 80.3289C145.536 82.9117 149.275 84.2031 153.595 84.2031C157.914 84.2031 161.653 82.9117 164.81 80.3289C167.966 77.5738 169.545 73.2691 169.545 67.4146V7.25861e-05H177.022V67.6729C176.855 75.7658 174.446 81.8786 169.794 86.0111C165.308 89.9715 159.908 91.9517 153.595 91.9517C147.281 91.9517 141.798 89.8854 137.146 85.7528C132.493 81.6203 130.167 75.5936 130.167 67.6729Z" fill="#EFEFEF"/>
<path d="M54.0818 91.9533C46.9374 91.9533 40.5406 90.3174 34.8915 87.0458C29.2424 83.7742 24.7563 79.2973 21.4333 73.6151C18.1103 67.9328 16.4488 61.5618 16.4488 54.502C16.4488 47.4423 18.1103 41.0713 21.4333 35.389C24.7563 29.7068 29.2424 25.2299 34.8915 21.9583C40.5406 18.6867 46.9374 17.0509 54.0818 17.0509C60.0632 17.0509 65.5462 18.2562 70.5307 20.6668C75.6813 23.0775 79.9181 26.3491 83.2411 30.4816L77.2597 35.1307C71.6106 28.2432 63.8847 24.7994 54.0818 24.7994C45.442 24.7994 38.2145 27.6405 32.3992 33.3228C26.7501 38.8328 23.9256 45.8926 23.9256 54.502C23.9256 62.9393 26.7501 69.9991 32.3992 75.6813C38.2145 81.3636 45.442 84.2047 54.0818 84.2047C63.8847 84.2047 71.6106 80.7609 77.2597 73.8733L83.2411 78.5225C79.9181 82.655 75.6813 85.9266 70.5307 88.3373C65.5462 90.7479 60.0632 91.9533 54.0818 91.9533ZM54.0818 109C43.9467 109 34.8084 106.589 26.6671 101.768C18.5257 96.9468 12.0459 90.4035 7.22752 82.1384C2.40918 73.8733 0 64.6612 0 54.502C0 44.1707 2.40918 34.9585 7.22752 26.8657C12.0459 18.6006 18.5257 12.0574 26.6671 7.23607C34.8084 2.41477 43.9467 0.00410783 54.0818 0.00410783C62.7216 0.00410783 70.6968 1.8121 78.0074 5.42807C85.318 9.04405 91.3825 13.8654 96.2008 19.892L90.4687 24.5411C86.3149 19.3754 81.0812 15.329 74.7675 12.4017C68.4538 9.30234 61.5586 7.75263 54.0818 7.75263C45.2759 7.75263 37.3007 9.8189 30.1562 13.9514C23.1779 18.084 17.6119 23.6802 13.4581 30.7399C9.47055 37.6275 7.47675 45.5482 7.47675 54.502C7.47675 63.2837 9.47055 71.2044 13.4581 78.2642C17.6119 85.3239 23.1779 90.9201 30.1562 95.0527C37.3007 99.1852 45.2759 101.251 54.0818 101.251C61.5586 101.251 68.4538 99.7879 74.7675 96.8607C81.0812 93.7613 86.3149 89.6287 90.4687 84.463L96.2008 89.1121C91.3825 95.1388 85.318 99.9601 78.0074 103.576C70.6968 107.192 62.7216 109 54.0818 109Z" fill="#EFEFEF"/>
<path fill-rule="evenodd" clip-rule="evenodd" d="M389.193 0.00437802L398.639 7.25861e-05L419.422 31.9483L440.204 7.25861e-05H449.65L419.422 44.1638L389.193 0.00437802Z" fill="#EFEFEF"/>
<path d="M406.832 108.998H415.232V50.219L380.975 0.070789L372.757 0.00437802L406.832 53.1725V108.998Z" fill="#EFEFEF"/>
<path d="M432.032 53.1725L468.635 0.070789L459.047 0.00437802L423.658 50.219V108.998H432.032V53.1725Z" fill="#EFEFEF"/>
<path d="M339.682 0L331.501 7.25861e-05V93.0259H386.94V84.4758H339.681L339.682 0Z" fill="#EFEFEF"/>
<path d="M323.941 0H316.381L316.381 108.998H386.94V100.825H323.941L323.941 0Z" fill="#EFEFEF"/>
<path d="M501.002 108.998V0.00437802H540.13C548.272 0.176565 555.25 3.10378 561.065 8.78603C566.88 14.2961 569.788 21.9585 569.788 31.7733C569.788 41.7603 566.88 49.5949 561.065 55.2772C555.25 60.7872 548.272 63.5422 540.13 63.5422H508.479V108.998H501.002ZM484.553 108.998V0.00437802H492.03V108.998H484.553ZM539.632 7.75291H508.479V17.0511H540.13C544.118 17.2233 547.275 18.6869 549.601 21.442C552.093 24.0248 553.339 27.4686 553.339 31.7733C553.339 36.078 552.093 39.6079 549.601 42.3629C547.109 45.118 543.952 46.4955 540.13 46.4955H508.479V55.7937H539.632C545.946 55.7937 551.262 53.8136 555.582 49.8532C560.068 45.7207 562.311 39.694 562.311 31.7733C562.311 23.8526 560.068 17.9121 555.582 13.9517C551.262 9.81918 545.946 7.75291 539.632 7.75291ZM539.632 24.7997H508.479V38.747H539.632C541.46 38.747 542.955 38.2304 544.118 37.1973C545.281 35.9919 545.862 34.1839 545.862 31.7733C545.862 29.3626 545.281 27.6408 544.118 26.6076C542.955 25.4023 541.46 24.7997 539.632 24.7997Z" fill="#EFEFEF"/>
<path d="M737.706 91.9531C730.562 91.9531 724.165 90.3173 718.516 87.0457C712.867 83.7741 708.381 79.2972 705.058 73.6149C701.735 67.9327 700.073 61.5617 700.073 54.5019C700.073 47.4422 701.735 41.0711 705.058 35.3889C708.381 29.7066 712.867 25.2297 718.516 21.9581C724.165 18.6865 730.562 17.0507 737.706 17.0507C743.688 17.0507 749.17 18.2561 754.155 20.6667C759.306 23.0774 763.543 26.3489 766.866 30.4815L761.544 35.4236C755.895 28.536 747.509 24.7992 737.706 24.7992C729.066 24.7992 721.839 27.6404 716.024 33.3226C710.375 38.8327 707.55 45.8924 707.55 54.5019C707.55 62.9392 710.375 69.9989 716.024 75.6812C721.839 81.3634 729.066 84.2046 737.706 84.2046C747.509 84.2046 755.555 80.8658 761.204 73.9782L766.866 78.5223C763.543 82.6549 759.306 85.9265 754.155 88.3371C749.17 90.7478 743.688 91.9531 737.706 91.9531ZM737.706 109C727.571 109 718.433 106.589 710.291 101.768C702.15 96.9466 695.67 90.4034 690.852 82.1383C686.034 73.8732 683.624 64.6611 683.624 54.5019C683.624 44.1706 686.034 34.9584 690.852 26.8655C695.67 18.6004 702.15 12.0572 710.291 7.23594C718.433 2.41463 727.571 0.00397252 737.706 0.00397252C746.346 0.00397252 754.321 1.81196 761.632 5.42794C768.942 9.04392 775.007 13.8652 779.825 19.8918L775.241 24.524C771.087 19.3583 764.706 15.3288 758.392 12.4016C752.078 9.3022 745.183 7.7525 737.706 7.7525C728.9 7.7525 720.925 9.81876 713.781 13.9513C706.802 18.0838 701.236 23.68 697.082 30.7398C693.095 37.6273 691.101 45.5481 691.101 54.5019C691.101 63.2836 693.095 71.2043 697.082 78.264C701.236 85.3238 706.802 90.92 713.781 95.0525C720.925 99.185 728.9 101.251 737.706 101.251C745.183 101.251 752.078 99.7877 758.392 96.8605C764.706 93.7611 771.087 89.6375 775.241 84.4719L779.825 89.112C775.007 95.1386 768.942 99.9599 761.632 103.576C754.321 107.192 746.346 109 737.706 109Z" fill="#EFEFEF"/>
<path d="M602.42 108.998L602.359 7.25861e-05H641.487C649.628 0.17226 656.606 3.09947 662.422 8.78172C668.237 14.2918 671.145 21.9542 671.145 31.769C671.145 41.756 668.237 49.5906 662.422 55.2729C656.606 60.7829 649.628 63.5379 641.487 63.5379H625.661H609.835V80.3847L609.897 108.998H602.42ZM585.971 108.998L585.91 7.25861e-05H593.386L593.448 108.998H585.971ZM640.988 7.74861H609.835V17.0468H641.487C645.474 17.219 648.631 18.6826 650.957 21.4377C653.45 24.0205 654.696 27.4643 654.696 31.769C654.696 36.0737 653.45 39.6036 650.957 42.3586C648.465 45.1137 645.308 46.4912 641.487 46.4912H609.835V55.7894H640.988C647.302 55.7894 652.619 53.8093 656.939 49.8489C661.425 45.7164 663.668 39.6897 663.668 31.769C663.668 23.8483 661.425 17.9078 656.939 13.9474C652.619 9.81487 647.302 7.74861 640.988 7.74861ZM640.988 24.7954H609.835V38.7427H640.988C642.816 38.7427 644.311 38.2261 645.474 37.193C646.638 35.9876 647.219 34.1796 647.219 31.769C647.219 29.3583 646.638 27.6365 645.474 26.6033C644.311 25.398 642.816 24.7954 640.988 24.7954Z" fill="#EFEFEF"/>
<path d="M639.585 108.998L625.661 63.5379H633.138L647.317 108.998H639.585Z" fill="#EFEFEF"/>
<path d="M656.939 108.998L642.357 63.5273L649.915 62.0174L665.09 108.998H656.939Z" fill="#EFEFEF"/>
<path d="M737.918 17.0469C745.063 17.0469 751.459 18.6827 757.108 21.9543C762.758 25.2259 767.244 29.7028 770.567 35.3851C773.89 41.0673 775.551 47.4383 775.551 54.498C775.551 61.5578 773.89 67.9288 770.567 73.611C767.244 79.2933 762.758 83.7702 757.108 87.0418C751.459 90.3134 745.063 91.9492 737.918 91.9492C731.937 91.9492 726.454 90.7438 721.469 88.3332C716.319 85.9225 712.082 82.651 708.759 78.5184L713.605 74.935C719.254 81.8226 728.115 84.2007 737.918 84.2007C746.558 84.2007 753.786 81.3595 759.601 75.6773C765.25 70.1673 768.074 63.1075 768.074 54.498C768.074 46.0608 765.25 39.001 759.601 33.3188C753.786 27.6366 746.558 24.7954 737.918 24.7954C728.115 24.7954 719.254 28.5364 713.605 35.424L708.759 30.4777C712.082 26.3451 716.319 23.0735 721.469 20.6629C726.454 18.2522 731.937 17.0469 737.918 17.0469ZM737.918 0.000164887C748.053 0.000164887 757.192 2.41081 765.333 7.2321C773.474 12.0534 779.954 18.5966 784.772 26.8617C789.591 35.1268 792 44.3389 792 54.498C792 64.8294 789.591 74.0415 784.772 82.1344C779.954 90.3995 773.474 96.9426 765.333 101.764C757.192 106.585 748.053 108.996 737.918 108.996C729.278 108.996 721.303 107.188 713.993 103.572C706.682 99.956 700.618 95.1347 695.799 89.108L701.278 84.4721C705.432 89.6378 710.919 93.6711 717.233 96.5983C723.546 99.6977 730.441 101.247 737.918 101.247C746.724 101.247 754.699 99.1811 761.844 95.0486C768.822 90.916 774.388 85.3199 778.542 78.2601C782.529 71.3726 784.523 63.4519 784.523 54.498C784.523 45.7164 782.529 37.7957 778.542 30.736C774.388 23.6762 768.822 18.08 761.844 13.9475C754.699 9.81493 746.724 7.74866 737.918 7.74866C730.441 7.74866 723.546 9.21225 717.233 12.1395C710.919 15.2389 705.432 19.3587 701.278 24.5244L695.799 19.888C700.618 13.8614 706.682 9.04009 713.993 5.42412C721.303 1.80815 729.278 0.000164887 737.918 0.000164887Z" fill="#EFEFEF"/>
</svg>
