<svg width="122" height="28" viewBox="0 0 122 28" fill="none" xmlns="http://www.w3.org/2000/svg">
<path d="M59.8905 27.3361V0.663171H70.0812C72.2016 0.707404 74.019 1.45938 75.5335 2.91909C77.0481 4.33457 77.8054 6.30296 77.8054 8.82429C77.8054 11.3898 77.0481 13.4025 75.5335 14.8622C74.019 16.2777 72.2016 16.9854 70.0812 16.9854H61.8377V27.3361H59.8905ZM55.6065 27.3361V0.663171H57.5537V27.3361H55.6065ZM69.9514 2.65369H61.8377V5.04231H70.0812C71.1197 5.08654 71.9419 5.46253 72.5477 6.17027C73.1968 6.83377 73.5214 7.71844 73.5214 8.82429C73.5214 9.93013 73.1968 10.8369 72.5477 11.5447C71.8986 12.2524 71.0765 12.6063 70.0812 12.6063H61.8377V14.9949H69.9514C71.5957 14.9949 72.9805 14.4862 74.1056 13.4688C75.2739 12.4072 75.8581 10.859 75.8581 8.82429C75.8581 6.78954 75.2739 5.26347 74.1056 4.2461C72.9805 3.18449 71.5957 2.65369 69.9514 2.65369ZM69.9514 7.03282H61.8377V10.6158H69.9514C70.4274 10.6158 70.8168 10.4831 71.1197 10.2176C71.4226 9.90801 71.5741 9.44356 71.5741 8.82429C71.5741 8.20501 71.4226 7.76268 71.1197 7.49728C70.8168 7.18764 70.4274 7.03282 69.9514 7.03282Z" fill="#B9BEEC"/>
<path d="M29.6173 17.3835V0.663171H31.5645V17.3172C31.5645 20.1481 32.3867 22.3156 34.0311 23.8195C35.7187 25.2792 37.7093 26.0091 40.0027 26.0091C42.2962 26.0091 44.2651 25.2792 45.9094 23.8195C47.5971 22.3156 48.4409 20.1481 48.4409 17.3172V0.663171H50.3882V17.3835C50.3449 19.6394 49.8472 21.5636 48.8952 23.156C47.9865 24.7042 46.7533 25.8985 45.1954 26.7389C43.6376 27.5794 41.9067 27.9996 40.0027 27.9996C38.0987 27.9996 36.3462 27.5794 34.7451 26.7389C33.1873 25.8985 31.9324 24.6821 30.9804 23.0897C30.0716 21.4972 29.6173 19.5952 29.6173 17.3835ZM33.9013 17.3835V0.663171H35.8485V17.3172C35.8485 18.8211 36.2596 19.9269 37.0818 20.6347C37.904 21.2982 38.8776 21.6299 40.0027 21.6299C41.1278 21.6299 42.1014 21.2982 42.9236 20.6347C43.7458 19.9269 44.1569 18.8211 44.1569 17.3172V0.663171H46.1042V17.3835C46.0609 19.4625 45.4334 21.0328 44.2218 22.0944C43.0534 23.1118 41.6471 23.6205 40.0027 23.6205C38.3583 23.6205 36.9303 23.0896 35.7187 22.028C34.5071 20.9664 33.9013 19.4183 33.9013 17.3835Z" fill="#B9BEEC"/>
<path d="M14.0853 23.6209C12.2245 23.6209 10.5585 23.2006 9.08727 22.3602C7.61599 21.5198 6.44763 20.3697 5.58218 18.91C4.71672 17.4503 4.284 15.8136 4.284 14C4.284 12.1865 4.71672 10.5498 5.58218 9.0901C6.44763 7.63039 7.61599 6.48031 9.08727 5.63987C10.5585 4.79943 12.2245 4.37921 14.0853 4.37921C15.6431 4.37921 17.0711 4.68885 18.3693 5.30812C19.7107 5.92739 20.8142 6.76783 21.6796 7.82944L20.1218 9.02375C18.6505 7.2544 16.6383 6.36973 14.0853 6.36973C11.8351 6.36973 9.95272 7.09958 8.43817 8.5593C6.9669 9.97477 6.23127 11.7884 6.23127 14C6.23127 16.1675 6.9669 17.9811 8.43817 19.4408C9.95272 20.9005 11.8351 21.6304 14.0853 21.6304C16.6383 21.6304 18.6505 20.7457 20.1218 18.9763L21.6796 20.1706C20.8142 21.2323 19.7107 22.0727 18.3693 22.692C17.0711 23.3112 15.6431 23.6209 14.0853 23.6209ZM14.0853 28C11.4456 28 9.06563 27.3807 6.94527 26.1422C4.82491 24.9036 3.13727 23.2228 1.88236 21.0995C0.627454 18.9763 0 16.6098 0 14C0 11.346 0.627454 8.97951 1.88236 6.90053C3.13727 4.77731 4.82491 3.09643 6.94527 1.85789C9.06563 0.619345 11.4456 7.06673e-05 14.0853 7.06673e-05C16.3354 7.06673e-05 18.4125 0.464526 20.3165 1.39343C22.2205 2.32234 23.8 3.56088 25.0549 5.10906L23.562 6.30337C22.4802 4.97636 21.1171 3.93687 19.4727 3.1849C17.8283 2.38869 16.0325 1.99059 14.0853 1.99059C11.7918 1.99059 9.71472 2.52139 7.85399 3.583C6.03654 4.64461 4.58691 6.08221 3.50509 7.89579C2.46654 9.66514 1.94727 11.6999 1.94727 14C1.94727 16.256 2.46654 18.2907 3.50509 20.1043C4.58691 21.9179 6.03654 23.3555 7.85399 24.4171C9.71472 25.4787 11.7918 26.0095 14.0853 26.0095C16.0325 26.0095 17.8283 25.6335 19.4727 24.8815C21.1171 24.0853 22.4802 23.0237 23.562 21.6967L25.0549 22.891C23.8 24.4392 22.2205 25.6777 20.3165 26.6066C18.4125 27.5355 16.3354 28 14.0853 28Z" fill="#B9BEEC"/>
<path d="M84.3683 0.682921H82.3994V27.317H84.3683V0.682921Z" fill="#B9BEEC"/>
<path d="M88.3063 0.682938H86.3373V23.2195H88.3063V0.682938Z" fill="#B9BEEC"/>
<path d="M84.3683 25.2684V27.317L100.776 27.3172V25.2684H84.3683Z" fill="#B9BEEC"/>
<path d="M86.3373 23.2195L100.776 23.2196V21.1709H88.3063V23.2195H86.3373Z" fill="#B9BEEC"/>
<path d="M108.144 12.8998H105.957V27.3171H108.144V12.8998Z" fill="#B9BEEC"/>
<path d="M112.52 12.8998H110.332V27.3171H112.52V12.8998Z" fill="#B9BEEC"/>
<path d="M119.448 0L110.332 12.8998H112.52L112.52 13.6585L122 0H119.448Z" fill="#B9BEEC"/>
<path d="M99.0292 0L108.144 12.8998H105.957L105.957 13.6585L96.4769 0H99.0292Z" fill="#B9BEEC"/>
<path fill-rule="evenodd" clip-rule="evenodd" d="M101.582 0H103.769L109.238 9.10567L114.708 0H116.895L109.238 11.7615L101.582 0Z" fill="#B9BEEC"/>
</svg>
