<svg viewBox="0 0 171 40" fill="none" xmlns="http://www.w3.org/2000/svg">
    <path
        d="M83.9448 39.0516V0.947387H98.2286C101.201 1.01058 103.748 2.08482 105.871 4.17013C107.994 6.19224 109.055 9.00424 109.055 12.6061C109.055 16.2712 107.994 19.1464 105.871 21.2317C103.748 23.2538 101.201 24.2649 98.2286 24.2649H86.6742V39.0516H83.9448ZM77.9402 39.0516V0.947387H80.6696V39.0516H77.9402ZM98.0466 3.79098H86.6742V7.20329H98.2286C99.6842 7.26649 100.837 7.80361 101.686 8.81467C102.596 9.76253 103.05 11.0263 103.05 12.6061C103.05 14.1859 102.596 15.4813 101.686 16.4924C100.776 17.5034 99.6236 18.009 98.2286 18.009H86.6742V21.4213H98.0466C100.351 21.4213 102.292 20.6946 103.869 19.2412C105.507 17.7246 106.326 15.5129 106.326 12.6061C106.326 9.69934 105.507 7.51925 103.869 6.06585C102.292 4.54927 100.351 3.79098 98.0466 3.79098ZM98.0466 10.0469H86.6742V15.1654H98.0466C98.7138 15.1654 99.2597 14.9758 99.6842 14.5966C100.109 14.1543 100.321 13.4908 100.321 12.6061C100.321 11.7214 100.109 11.0895 99.6842 10.7104C99.2597 10.2681 98.7138 10.0469 98.0466 10.0469Z"
        fill="white"/>
    <path
        d="M41.5127 24.8336V0.947387H44.2421V24.7388C44.2421 28.783 45.3945 31.8794 47.6993 34.0279C50.0648 36.1132 52.8548 37.1558 56.0694 37.1558C59.284 37.1558 62.0437 36.1132 64.3485 34.0279C66.7139 31.8794 67.8967 28.783 67.8967 24.7388V0.947387H70.626V24.8336C70.5654 28.0563 69.8679 30.8051 68.5335 33.08C67.2598 35.2917 65.5312 36.9979 63.3477 38.1985C61.1642 39.3991 58.7381 39.9994 56.0694 39.9994C53.4007 39.9994 50.9442 39.3991 48.7001 38.1985C46.5166 36.9979 44.7576 35.2601 43.4233 32.9852C42.1496 30.7103 41.5127 27.9931 41.5127 24.8336ZM47.5173 24.8336V0.947387H50.2467V24.7388C50.2467 26.8873 50.8229 28.4671 51.9753 29.4781C53.1277 30.426 54.4924 30.8999 56.0694 30.8999C57.6463 30.8999 59.011 30.426 60.1634 29.4781C61.3158 28.4671 61.892 26.8873 61.892 24.7388V0.947387H64.6214V24.8336C64.5608 27.8036 63.6813 30.0468 61.983 31.5634C60.3454 33.0168 58.3742 33.7435 56.0694 33.7435C53.7646 33.7435 51.763 32.9852 50.0648 31.4686C48.3665 29.952 47.5173 27.7404 47.5173 24.8336Z"
        fill="white"/>
    <path
        d="M19.7425 33.7441C17.1344 33.7441 14.7993 33.1438 12.7371 31.9431C10.6749 30.7425 9.03725 29.0996 7.8242 27.0143C6.61114 24.929 6.00462 22.5909 6.00462 20.0001C6.00462 17.4092 6.61114 15.0712 7.8242 12.9859C9.03725 10.9006 10.6749 9.25758 12.7371 8.05696C14.7993 6.85633 17.1344 6.25601 19.7425 6.25601C21.926 6.25601 23.9275 6.69835 25.7471 7.58302C27.6273 8.4677 29.174 9.66832 30.387 11.1849L28.2035 12.8911C26.1413 10.3634 23.321 9.09961 19.7425 9.09961C16.5885 9.09961 13.9501 10.1423 11.8273 12.2276C9.76509 14.2497 8.73399 16.8405 8.73399 20.0001C8.73399 23.0964 9.76509 25.6872 11.8273 27.7725C13.9501 29.8578 16.5885 30.9005 19.7425 30.9005C23.321 30.9005 26.1413 29.6367 28.2035 27.109L30.387 28.8152C29.174 30.3318 27.6273 31.5324 25.7471 32.4171C23.9275 33.3018 21.926 33.7441 19.7425 33.7441ZM19.7425 40C16.0426 40 12.7067 39.1153 9.73476 37.346C6.76278 35.5766 4.39732 33.1754 2.63839 30.1422C0.879464 27.109 0 23.7283 0 20.0001C0 16.2086 0.879464 12.8279 2.63839 9.8579C4.39732 6.82473 6.76278 4.42348 9.73476 2.65413C12.7067 0.884778 16.0426 0.000100953 19.7425 0.000100953C22.8964 0.000100953 25.8077 0.663609 28.4764 1.99062C31.1452 3.31763 33.359 5.08698 35.1179 7.29866L33.0254 9.00482C31.5091 7.10909 29.5985 5.6241 27.2937 4.54986C24.9889 3.41242 22.4718 2.8437 19.7425 2.8437C16.5279 2.8437 13.6165 3.60199 11.0085 5.11857C8.46105 6.63516 6.42919 8.68887 4.91287 11.2797C3.4572 13.8073 2.72937 16.7141 2.72937 20.0001C2.72937 23.2228 3.4572 26.1296 4.91287 28.7204C6.42919 31.3112 8.46105 33.3649 11.0085 34.8815C13.6165 36.3981 16.5279 37.1564 19.7425 37.1564C22.4718 37.1564 24.9889 36.6193 27.2937 35.545C29.5985 34.4076 31.5091 32.891 33.0254 30.9953L35.1179 32.7014C33.359 34.9131 31.1452 36.6825 28.4764 38.0095C25.8077 39.3365 22.8964 40 19.7425 40Z"
        fill="white"/>
    <path d="M118.254 0.975602H115.494V39.0243H118.254V0.975602Z" fill="white"/>
    <path d="M123.774 0.975626H121.014V33.1707H123.774V0.975626Z" fill="white"/>
    <path d="M118.254 36.0978V39.0243L141.252 39.0246V36.0978H118.254Z" fill="white"/>
    <path d="M121.014 33.1707L141.252 33.1709V30.2441H123.774V33.1707H121.014Z" fill="white"/>
    <path d="M151.58 18.4282H148.513V39.0244H151.58V18.4282Z" fill="white"/>
    <path d="M157.712 18.4282H154.646V39.0244H157.712V18.4282Z" fill="white"/>
    <path d="M167.423 0L154.646 18.4282H157.712L157.713 19.5121L171 0H167.423Z" fill="white"/>
    <path d="M138.803 0L151.58 18.4282H148.513L148.513 19.5121L135.226 0H138.803Z" fill="white"/>
    <path fill-rule="evenodd" clip-rule="evenodd"
          d="M142.381 0H145.447L153.113 13.0081L160.779 0H163.845L153.113 16.8021L142.381 0Z" fill="white"/>
</svg>
